<?xml version="1.0" encoding="utf-8"?>
<!-- Generator: Adobe Illustrator 15.1.0, SVG Export Plug-In . SVG Version: 6.00 Build 0)  -->
<!DOCTYPE svg PUBLIC "-//W3C//DTD SVG 1.1//EN" "http://www.w3.org/Graphics/SVG/1.1/DTD/svg11.dtd">
<svg version="1.1" id="レイヤー_1" xmlns="http://www.w3.org/2000/svg" xmlns:xlink="http://www.w3.org/1999/xlink" x="0px"
	 y="0px" width="236.312px" height="123.25px" viewBox="-7.812 0 236.312 123.25" enable-background="new -7.812 0 236.312 123.25"
	 xml:space="preserve">
<g>
	<path d="M59.941,65.73c0,9.607,4.204,12.247,10.809,12.247c6.604,0,10.806-2.641,10.806-12.247v-5.763h16.572v3.601
		c0,21.376-11.287,29.061-27.378,29.061c-16.092,0-27.381-7.685-27.381-29.061v-30.98c0-21.376,11.289-29.061,27.381-29.061
		c16.091,0,27.378,7.685,27.378,29.061v0.239H81.556v-2.402c0-9.606-4.203-12.248-10.806-12.248
		c-6.605,0-10.809,2.642-10.809,12.248V65.73L59.941,65.73z"/>
	<path fill="#F39800" d="M138.836,5.517h14.651v25.338h25.336v14.649h-25.336v25.337h-14.651V45.504h-25.339V30.855h25.339V5.517z"
		/>
</g>
<g>
	<g>
		<path d="M2.016,105.518v-0.559c0-0.976-0.696-1.484-1.719-1.484c-1.021,0-1.718,0.508-1.718,1.484v5.017
			c0,0.978,0.698,1.485,1.718,1.485c1.022,0,1.719-0.508,1.719-1.485v-0.79h2.926v0.046c0,3.345-1.719,4.784-4.645,4.784
			c-2.925,0-4.644-1.439-4.644-4.784v-3.528c0-3.344,1.718-4.785,4.644-4.785c2.856,0,4.575,1.395,4.622,4.599H2.016z"/>
		<path d="M9.588,105.703c0-3.344,1.718-4.785,4.643-4.785c2.926,0,4.645,1.44,4.645,4.785v3.528c0,3.345-1.719,4.784-4.645,4.784
			c-2.925,0-4.643-1.439-4.643-4.784V105.703z M12.512,109.974c0,0.979,0.698,1.487,1.719,1.487c1.022,0,1.718-0.508,1.718-1.487
			v-5.015c0-0.976-0.696-1.486-1.718-1.486c-1.021,0-1.719,0.51-1.719,1.486V109.974z"/>
		<path d="M23.755,101.151h2.832v1.438c0.953-0.858,1.905-1.671,3.135-1.671c1.093,0,1.882,0.744,2.229,1.905
			c0.906-0.999,1.835-1.905,3.111-1.905c1.765,0,2.672,1.068,2.672,3.343v9.521h-2.925v-9.614c0-0.837-0.303-1.068-0.767-1.068
			c-0.557,0-1.463,0.65-1.836,1.137v9.543h-2.925v-9.612c0-0.837-0.325-1.07-0.79-1.07c-0.626,0-1.462,0.652-1.812,1.139v9.543
			h-2.925V101.151L23.755,101.151z"/>
		<path d="M42.842,101.151h2.833v1.438c0.953-0.858,1.905-1.671,3.135-1.671c1.091,0,1.881,0.744,2.229,1.905
			c0.904-0.999,1.834-1.905,3.111-1.905c1.765,0,2.67,1.068,2.67,3.343v9.521h-2.924v-9.614c0-0.837-0.304-1.068-0.767-1.068
			c-0.557,0-1.462,0.65-1.835,1.137v9.543H48.37v-9.612c0-0.837-0.326-1.07-0.79-1.07c-0.627,0-1.463,0.652-1.813,1.139v9.543
			h-2.925V101.151L42.842,101.151z"/>
		<path d="M70.756,101.151v12.632h-2.833v-1.441c-1.067,0.932-2.066,1.672-3.274,1.672c-1.788,0-2.716-0.904-2.716-3.248v-9.614
			h2.925v9.287c0,0.838,0.28,1.394,1.068,1.394c0.604,0,1.277-0.579,1.905-1.137v-9.546h2.925V101.151z"/>
		<path d="M75.865,113.783v-12.632h2.832v1.438c1.068-0.927,2.067-1.671,3.274-1.671c1.789,0,2.718,0.906,2.718,3.25v9.614h-2.925
			v-9.287c0-0.838-0.28-1.395-1.069-1.395c-0.604,0-1.276,0.582-1.905,1.138v9.544H75.865L75.865,113.783z"/>
		<path d="M90.171,98.969v-2.647h2.926v2.647H90.171z M93.097,101.151v12.632h-2.926v-12.632H93.097z"/>
		<path d="M104.708,105.518v-0.559c0-0.976-0.695-1.484-1.718-1.484c-1.022,0-1.719,0.508-1.719,1.484v5.017
			c0,0.978,0.696,1.485,1.719,1.485c1.022,0,1.718-0.508,1.718-1.485v-0.79h2.924v0.046c0,3.345-1.717,4.784-4.643,4.784
			s-4.645-1.439-4.645-4.784v-3.528c0-3.344,1.718-4.785,4.645-4.785c2.855,0,4.574,1.395,4.62,4.599H104.708z"/>
		<path d="M112.232,104.844c0.209-2.809,2.346-3.925,4.691-3.925c3.112,0,4.297,1.58,4.297,3.832v8.011
			c0,0.349,0.07,0.698,0.163,1.022h-2.927c-0.07-0.324-0.117-0.719-0.209-1.229c-0.859,0.859-2.02,1.462-3.483,1.462
			c-1.766,0-2.902-0.975-2.902-3.018c0-2.926,2.786-4.182,6.431-5.271v-0.929c0-1.091-0.672-1.51-1.509-1.51
			c-0.882,0-1.625,0.649-1.625,1.556H112.232L112.232,104.844L112.232,104.844z M118.294,107.605
			c-1.743,0.604-3.507,1.58-3.507,2.904c0,0.835,0.51,1.322,1.301,1.322c0.882,0,1.509-0.464,2.205-1.16v-3.066H118.294
			L118.294,107.605L118.294,107.605z"/>
		<path d="M125.192,104.078v-2.37h1.161v-3.437h2.926v3.437h1.881v2.37h-1.881v6.454c0,0.628,0.533,0.929,1.322,0.929
			c0.211,0,0.396,0,0.582-0.022v2.462c-0.558,0.094-1.114,0.115-1.673,0.115c-1.902,0-3.157-0.695-3.157-2.508v-7.43H125.192
			L125.192,104.078z"/>
		<path d="M135.595,98.969v-2.647h2.926v2.647H135.595z M138.521,101.151v12.632h-2.926v-12.632H138.521z"/>
		<path d="M143.77,105.703c0-3.344,1.72-4.785,4.646-4.785c2.924,0,4.644,1.44,4.644,4.785v3.528c0,3.345-1.72,4.784-4.644,4.784
			c-2.926,0-4.646-1.439-4.646-4.784V105.703L143.77,105.703z M146.696,109.974c0,0.979,0.695,1.487,1.72,1.487
			c1.021,0,1.716-0.508,1.716-1.487v-5.015c0-0.976-0.695-1.486-1.716-1.486c-1.024,0-1.72,0.51-1.72,1.486V109.974z"/>
		<path d="M157.936,113.783v-12.632h2.833v1.438c1.068-0.927,2.065-1.671,3.275-1.671c1.787,0,2.716,0.906,2.716,3.25v9.614h-2.926
			v-9.287c0-0.838-0.278-1.395-1.068-1.395c-0.603,0-1.276,0.582-1.903,1.138v9.544H157.936L157.936,113.783z"/>
		<path fill="#F39800" d="M183.343,101.151v1.531h0.045c0.511-0.788,1.812-1.764,3.113-1.764c2.275,0,3.205,1.764,3.205,5.017v3.062
			c0,3.252-0.931,5.016-3.205,5.016c-0.79,0-1.533-0.371-2.926-1.391v5.619h-2.926v-17.09L183.343,101.151L183.343,101.151
			L183.343,101.151z M183.575,110.928c0.58,0.626,1.115,0.904,1.765,0.904c0.789,0,1.438-0.508,1.438-3.018v-2.693
			c0-2.509-0.649-3.019-1.438-3.019c-0.649,0-1.185,0.281-1.765,0.907V110.928z"/>
		<path fill="#F39800" d="M194.953,97.018h2.926v16.765h-2.926V97.018z"/>
		<path fill="#F39800" d="M212.185,101.151v12.632h-2.833v-1.441c-1.069,0.932-2.065,1.672-3.274,1.672
			c-1.787,0-2.719-0.904-2.719-3.248v-9.614h2.928v9.287c0,0.838,0.277,1.394,1.068,1.394c0.604,0,1.277-0.579,1.904-1.137v-9.546
			h2.926V101.151z"/>
		<path fill="#F39800" d="M222.866,105.005c-0.395-1.161-1.137-1.719-2.02-1.719c-0.672,0-1.184,0.488-1.184,1.139
			c0,1.951,5.713,1.997,5.713,5.761c0,2.506-1.766,3.83-4.205,3.83c-1.765,0-3.344-0.441-4.76-3.6l2.626-0.718
			c0.255,1.184,0.976,1.949,2.134,1.949c0.883,0,1.418-0.417,1.418-1.114c0-2.414-5.713-1.834-5.713-6.084
			c0-2.392,1.928-3.53,3.994-3.53c2.182,0,3.693,1.255,4.41,3.161L222.866,105.005z"/>
	</g>
</g>
</svg>
