<?xml version="1.0" encoding="utf-8"?>
<!-- Generator: Adobe Illustrator 15.1.0, SVG Export Plug-In . SVG Version: 6.00 Build 0)  -->
<!DOCTYPE svg PUBLIC "-//W3C//DTD SVG 1.1//EN" "http://www.w3.org/Graphics/SVG/1.1/DTD/svg11.dtd">
<svg version="1.1" id="レイヤー_1" xmlns="http://www.w3.org/2000/svg" xmlns:xlink="http://www.w3.org/1999/xlink" x="0px"
	 y="0px" width="193.656px" height="56.5px" viewBox="0 0 193.656 56.5" enable-background="new 0 0 193.656 56.5"
	 xml:space="preserve">
<g>
	<path fill="#FFFFFF" d="M10.8,37.039c0,5.488,2.401,6.998,6.176,6.998c3.771,0,6.174-1.51,6.174-6.998v-3.293h9.467v2.059
		c0,12.211-6.448,16.602-15.641,16.602c-9.193,0-15.644-4.391-15.644-16.602v-17.7c0-12.212,6.449-16.603,15.644-16.603
		c9.191,0,15.641,4.391,15.641,16.603v0.137h-9.467V16.87c0-5.488-2.401-6.997-6.174-6.997c-3.773,0-6.176,1.509-6.176,6.997V37.039
		z"/>
	<path fill="#F39800" d="M55.87,1.4h8.369v14.476h14.476v8.369H64.239v14.476H55.87V24.245H41.395v-8.369H55.87V1.4z"/>
</g>
<g>
	<g>
		<path fill="#FFFFFF" d="M43.386,47.201V46.83c0-0.652-0.466-0.992-1.146-0.992c-0.683,0-1.147,0.34-1.147,0.992v3.348
			c0,0.652,0.466,0.992,1.147,0.992s1.146-0.34,1.146-0.992V49.65h1.953v0.031c0,2.231-1.146,3.192-3.101,3.192
			s-3.101-0.961-3.101-3.192v-2.355c0-2.232,1.146-3.193,3.101-3.193c1.906,0,3.054,0.93,3.085,3.068H43.386z"/>
		<path fill="#FFFFFF" d="M48.438,47.326c0-2.232,1.146-3.193,3.101-3.193c1.953,0,3.102,0.961,3.102,3.193v2.355
			c0,2.231-1.147,3.192-3.102,3.192s-3.101-0.961-3.101-3.192V47.326z M50.392,50.178c0,0.652,0.465,0.992,1.146,0.992
			c0.683,0,1.147-0.34,1.147-0.992V46.83c0-0.652-0.466-0.992-1.147-0.992c-0.683,0-1.146,0.34-1.146,0.992V50.178z"/>
		<path fill="#FFFFFF" d="M57.894,44.287h1.891v0.961c0.636-0.573,1.271-1.115,2.093-1.115c0.729,0,1.256,0.496,1.488,1.271
			c0.604-0.668,1.226-1.271,2.078-1.271c1.178,0,1.782,0.713,1.782,2.232v6.355h-1.953v-6.418c0-0.56-0.201-0.714-0.512-0.714
			c-0.372,0-0.978,0.435-1.226,0.761v6.371h-1.953v-6.418c0-0.56-0.217-0.714-0.526-0.714c-0.419,0-0.978,0.435-1.209,0.761v6.371
			h-1.953V44.287z"/>
		<path fill="#FFFFFF" d="M70.634,44.287h1.893v0.961c0.636-0.573,1.271-1.115,2.093-1.115c0.729,0,1.256,0.496,1.488,1.271
			c0.604-0.668,1.225-1.271,2.078-1.271c1.178,0,1.781,0.713,1.781,2.232v6.355h-1.952v-6.418c0-0.56-0.201-0.714-0.513-0.714
			c-0.372,0-0.977,0.435-1.225,0.761v6.371h-1.953v-6.418c0-0.56-0.218-0.714-0.527-0.714c-0.419,0-0.977,0.435-1.209,0.761v6.371
			h-1.954V44.287z"/>
		<path fill="#FFFFFF" d="M89.266,44.287v8.434h-1.893V51.76c-0.713,0.619-1.38,1.115-2.186,1.115c-1.193,0-1.814-0.604-1.814-2.17
			v-6.418h1.954v6.201c0,0.559,0.187,0.93,0.713,0.93c0.403,0,0.854-0.387,1.271-0.76v-6.371H89.266z"/>
		<path fill="#FFFFFF" d="M92.675,52.721v-8.434h1.892v0.961c0.713-0.619,1.38-1.115,2.187-1.115c1.193,0,1.813,0.604,1.813,2.17
			v6.418h-1.953V46.52c0-0.559-0.188-0.93-0.713-0.93c-0.403,0-0.854,0.387-1.271,0.76v6.371H92.675z"/>
		<path fill="#FFFFFF" d="M102.222,42.83v-1.768h1.953v1.768H102.222z M104.176,44.287v8.434h-1.953v-8.434H104.176z"/>
		<path fill="#FFFFFF" d="M111.925,47.201V46.83c0-0.652-0.465-0.992-1.146-0.992c-0.683,0-1.147,0.34-1.147,0.992v3.348
			c0,0.652,0.466,0.992,1.147,0.992s1.146-0.34,1.146-0.992V49.65h1.954v0.031c0,2.231-1.146,3.192-3.101,3.192
			s-3.101-0.961-3.101-3.192v-2.355c0-2.232,1.146-3.193,3.101-3.193c1.906,0,3.054,0.93,3.085,3.068H111.925z"/>
		<path fill="#FFFFFF" d="M116.947,46.752c0.14-1.875,1.565-2.619,3.132-2.619c2.077,0,2.868,1.053,2.868,2.557v5.351
			c0,0.231,0.046,0.465,0.108,0.683h-1.953c-0.047-0.218-0.078-0.48-0.141-0.822c-0.573,0.574-1.349,0.977-2.325,0.977
			c-1.179,0-1.938-0.65-1.938-2.016c0-1.953,1.86-2.789,4.294-3.518v-0.621c0-0.729-0.449-1.009-1.008-1.009
			c-0.589,0-1.085,0.435-1.085,1.039L116.947,46.752L116.947,46.752z M120.993,48.598c-1.162,0.402-2.341,1.053-2.341,1.938
			c0,0.558,0.341,0.883,0.868,0.883c0.59,0,1.008-0.31,1.473-0.774V48.598L120.993,48.598z"/>
		<path fill="#FFFFFF" d="M125.596,46.24v-1.581h0.774v-2.294h1.953v2.294h1.256v1.581h-1.256v4.311
			c0,0.418,0.356,0.619,0.884,0.619c0.141,0,0.265,0,0.389-0.016v1.645c-0.372,0.062-0.744,0.076-1.116,0.076
			c-1.271,0-2.108-0.465-2.108-1.674V46.24H125.596z"/>
		<path fill="#FFFFFF" d="M132.54,42.83v-1.768h1.953v1.768H132.54z M134.493,44.287v8.434h-1.953v-8.434H134.493z"/>
		<path fill="#FFFFFF" d="M137.995,47.326c0-2.232,1.146-3.193,3.102-3.193c1.952,0,3.101,0.961,3.101,3.193v2.355
			c0,2.231-1.147,3.192-3.101,3.192c-1.954,0-3.102-0.961-3.102-3.192V47.326z M139.948,50.178c0,0.652,0.465,0.992,1.147,0.992
			c0.682,0,1.146-0.34,1.146-0.992V46.83c0-0.652-0.466-0.992-1.146-0.992c-0.684,0-1.147,0.34-1.147,0.992V50.178z"/>
		<path fill="#FFFFFF" d="M147.45,52.721v-8.434h1.891v0.961c0.714-0.619,1.381-1.115,2.188-1.115c1.193,0,1.812,0.604,1.812,2.17
			v6.418h-1.952V46.52c0-0.559-0.188-0.93-0.714-0.93c-0.402,0-0.854,0.387-1.271,0.76v6.371H147.45z"/>
		<path fill="#F39800" d="M164.407,44.287v1.023h0.031c0.341-0.527,1.209-1.179,2.077-1.179c1.52,0,2.14,1.179,2.14,3.349v2.047
			c0,2.17-0.62,3.348-2.14,3.348c-0.527,0-1.023-0.248-1.953-0.93v3.752h-1.954v-11.41H164.407z M164.562,50.814
			c0.388,0.418,0.744,0.604,1.178,0.604c0.527,0,0.962-0.34,0.962-2.016v-1.797c0-1.676-0.435-2.017-0.962-2.017
			c-0.434,0-0.79,0.187-1.178,0.604V50.814z"/>
		<path fill="#F39800" d="M172.157,41.527h1.953v11.193h-1.953V41.527z"/>
		<path fill="#F39800" d="M183.658,44.287v8.434h-1.892V51.76c-0.713,0.619-1.38,1.115-2.187,1.115c-1.192,0-1.813-0.604-1.813-2.17
			v-6.418h1.954v6.201c0,0.559,0.186,0.93,0.713,0.93c0.402,0,0.853-0.387,1.271-0.76v-6.371H183.658z"/>
		<path fill="#F39800" d="M190.788,46.861c-0.264-0.775-0.76-1.148-1.35-1.148c-0.449,0-0.79,0.326-0.79,0.76
			c0,1.303,3.812,1.334,3.812,3.846c0,1.675-1.178,2.558-2.806,2.558c-1.179,0-2.232-0.294-3.179-2.401l1.752-0.48
			c0.171,0.791,0.65,1.303,1.427,1.303c0.589,0,0.945-0.279,0.945-0.744c0-1.613-3.813-1.225-3.813-4.062
			c0-1.597,1.286-2.354,2.666-2.354c1.457,0,2.465,0.836,2.945,2.106L190.788,46.861z"/>
	</g>
</g>
</svg>
