<?xml version="1.0" encoding="utf-8"?>
<!-- Generator: Adobe Illustrator 15.1.0, SVG Export Plug-In . SVG Version: 6.00 Build 0)  -->
<!DOCTYPE svg PUBLIC "-//W3C//DTD SVG 1.1//EN" "http://www.w3.org/Graphics/SVG/1.1/DTD/svg11.dtd">
<svg version="1.1" id="レイヤー_1" xmlns="http://www.w3.org/2000/svg" xmlns:xlink="http://www.w3.org/1999/xlink" x="0px"
	 y="0px" width="432px" height="219.5px" viewBox="-7 -19.5 432 219.5" enable-background="new -7 -19.5 432 219.5"
	 xml:space="preserve">
<g>
	<path d="M115.909,100.991c0,17.741,7.763,22.617,19.961,22.617c12.196,0,19.957-4.878,19.957-22.617V90.349h30.603v6.65
		c0,39.475-20.845,53.666-50.56,53.666c-29.718,0-50.564-14.191-50.564-53.666V39.787c0-39.476,20.847-53.667,50.564-53.667
		c29.715,0,50.56,14.191,50.56,53.667v0.441h-30.603v-4.436c0-17.74-7.761-22.618-19.957-22.618
		c-12.198,0-19.961,4.879-19.961,22.618V100.991L115.909,100.991z"/>
	<path fill="#F39800" d="M261.606-10.206h27.055v46.792h46.79V63.64h-46.79v46.792h-27.055V63.64h-46.793V36.587h46.793V-10.206z"/>
</g>
<g>
	<g>
		<path d="M8.938,174.468v-1.03c0-1.802-1.286-2.743-3.174-2.743c-1.885,0-3.173,0.941-3.173,2.743v9.261
			c0,1.805,1.288,2.745,3.173,2.745c1.888,0,3.174-0.94,3.174-2.745v-1.457h5.403v0.084c0,6.175-3.175,8.834-8.577,8.834
			s-8.576-2.659-8.576-8.834v-6.515c0-6.176,3.174-8.836,8.576-8.836c5.274,0,8.448,2.574,8.534,8.493H8.938z"/>
		<path d="M22.921,174.811c0-6.176,3.173-8.836,8.575-8.836c5.403,0,8.577,2.66,8.577,8.836v6.515c0,6.175-3.174,8.834-8.577,8.834
			c-5.402,0-8.575-2.659-8.575-8.834V174.811z M28.322,182.698c0,1.805,1.288,2.745,3.174,2.745c1.887,0,3.173-0.94,3.173-2.745
			v-9.261c0-1.802-1.286-2.743-3.173-2.743c-1.886,0-3.174,0.941-3.174,2.743V182.698z"/>
		<path d="M49.082,166.404h5.23v2.657c1.759-1.584,3.518-3.087,5.79-3.087c2.017,0,3.475,1.373,4.116,3.52
			c1.674-1.846,3.39-3.52,5.746-3.52c3.259,0,4.934,1.974,4.934,6.175v17.583h-5.402v-17.754c0-1.546-0.558-1.974-1.416-1.974
			c-1.028,0-2.702,1.202-3.39,2.102v17.623h-5.402v-17.752c0-1.545-0.6-1.974-1.458-1.974c-1.158,0-2.7,1.202-3.345,2.102v17.624
			h-5.403V166.404L49.082,166.404z"/>
		<path d="M84.332,166.404h5.232v2.657c1.759-1.584,3.516-3.087,5.789-3.087c2.015,0,3.473,1.373,4.117,3.52
			c1.671-1.846,3.387-3.52,5.745-3.52c3.26,0,4.932,1.974,4.932,6.175v17.583h-5.402v-17.754c0-1.546-0.56-1.974-1.415-1.974
			c-1.028,0-2.701,1.202-3.388,2.102v17.623h-5.401v-17.752c0-1.545-0.601-1.974-1.46-1.974c-1.157,0-2.701,1.202-3.346,2.102
			v17.624h-5.403V166.404L84.332,166.404z"/>
		<path d="M135.881,166.404v23.328h-5.232v-2.66c-1.971,1.718-3.815,3.087-6.046,3.087c-3.301,0-5.016-1.671-5.016-6v-17.755h5.402
			v17.153c0,1.545,0.516,2.572,1.972,2.572c1.115,0,2.359-1.07,3.517-2.102v-17.624H135.881z"/>
		<path d="M145.317,189.732v-23.328h5.23v2.657c1.973-1.714,3.818-3.087,6.048-3.087c3.303,0,5.018,1.674,5.018,6.005v17.753h-5.402
			v-17.151c0-1.547-0.516-2.575-1.973-2.575c-1.115,0-2.358,1.073-3.517,2.102v17.625H145.317L145.317,189.732z"/>
		<path d="M171.736,162.374v-4.889h5.404v4.889H171.736z M177.14,166.404v23.328h-5.404v-23.328H177.14z"/>
		<path d="M198.581,174.468v-1.03c0-1.802-1.284-2.743-3.173-2.743c-1.887,0-3.173,0.941-3.173,2.743v9.261
			c0,1.805,1.285,2.745,3.173,2.745c1.887,0,3.173-0.94,3.173-2.745v-1.457h5.402v0.084c0,6.175-3.172,8.834-8.575,8.834
			s-8.578-2.659-8.578-8.834v-6.515c0-6.176,3.174-8.836,8.578-8.836c5.274,0,8.447,2.574,8.533,8.493H198.581z"/>
		<path d="M212.476,173.224c0.388-5.188,4.333-7.249,8.664-7.249c5.746,0,7.935,2.918,7.935,7.077v14.793
			c0,0.644,0.129,1.288,0.301,1.888h-5.405c-0.129-0.6-0.215-1.328-0.385-2.271c-1.588,1.588-3.731,2.698-6.433,2.698
			c-3.261,0-5.36-1.798-5.36-5.571c0-5.402,5.146-7.721,11.877-9.736v-1.714c0-2.016-1.242-2.789-2.787-2.789
			c-1.63,0-3.001,1.199-3.001,2.873h-5.405V173.224L212.476,173.224z M223.671,178.324c-3.219,1.116-6.476,2.917-6.476,5.362
			c0,1.542,0.942,2.443,2.401,2.443c1.629,0,2.787-0.856,4.072-2.143v-5.661h0.002V178.324z"/>
		<path d="M236.409,171.808v-4.374h2.144v-6.347h5.403v6.347h3.474v4.374h-3.474v11.92c0,1.16,0.985,1.718,2.443,1.718
			c0.388,0,0.729,0,1.074-0.043v4.546c-1.031,0.172-2.058,0.214-3.09,0.214c-3.512,0-5.831-1.285-5.831-4.633v-13.722H236.409
			L236.409,171.808z"/>
		<path d="M255.621,162.374v-4.889h5.404v4.889H255.621z M261.025,166.404v23.328h-5.404v-23.328H261.025z"/>
		<path d="M270.717,174.811c0-6.176,3.176-8.836,8.579-8.836c5.401,0,8.577,2.66,8.577,8.836v6.515c0,6.175-3.176,8.834-8.577,8.834
			c-5.403,0-8.579-2.659-8.579-8.834V174.811L270.717,174.811z M276.121,182.698c0,1.805,1.285,2.745,3.175,2.745
			c1.887,0,3.171-0.94,3.171-2.745v-9.261c0-1.802-1.284-2.743-3.171-2.743c-1.89,0-3.175,0.941-3.175,2.743V182.698z"/>
		<path d="M296.88,189.732v-23.328h5.231v2.657c1.972-1.714,3.814-3.087,6.048-3.087c3.3,0,5.016,1.674,5.016,6.005v17.753h-5.403
			v-17.151c0-1.547-0.514-2.575-1.973-2.575c-1.114,0-2.357,1.073-3.515,2.102v17.625H296.88L296.88,189.732z"/>
		<path fill="#F39800" d="M343.797,166.404v2.829h0.083c0.944-1.456,3.346-3.259,5.749-3.259c4.203,0,5.919,3.259,5.919,9.264v5.659
			c0,6.003-1.718,9.262-5.919,9.262c-1.458,0-2.83-0.684-5.403-2.571v10.378h-5.402v-31.56h4.974V166.404z M344.226,184.458
			c1.072,1.157,2.06,1.672,3.259,1.672c1.459,0,2.657-0.939,2.657-5.572v-4.976c0-4.632-1.198-5.573-2.657-5.573
			c-1.199,0-2.187,0.517-3.259,1.672V184.458z"/>
		<path fill="#F39800" d="M365.24,158.771h5.403v30.962h-5.403V158.771z"/>
		<path fill="#F39800" d="M397.061,166.404v23.328h-5.231v-2.66c-1.975,1.718-3.815,3.087-6.048,3.087c-3.3,0-5.018-1.671-5.018-6
			v-17.755h5.404v17.153c0,1.545,0.514,2.572,1.973,2.572c1.114,0,2.358-1.07,3.517-2.102v-17.624H397.061z"/>
		<path fill="#F39800" d="M416.79,173.522c-0.73-2.144-2.1-3.174-3.731-3.174c-1.241,0-2.188,0.899-2.188,2.102
			c0,3.603,10.551,3.687,10.551,10.637c0,4.63-3.26,7.075-7.764,7.075c-3.259,0-6.175-0.814-8.79-6.647l4.847-1.328
			c0.47,2.188,1.802,3.601,3.943,3.601c1.63,0,2.618-0.771,2.618-2.058c0-4.459-10.551-3.386-10.551-11.234
			c0-4.418,3.56-6.52,7.376-6.52c4.029,0,6.818,2.317,8.146,5.834L416.79,173.522z"/>
	</g>
</g>
</svg>
